<svg
            width="24"
            height="24"
            fill="none"
            viewBox="0 0 24 24"
        >
            <path
                fill="#133041"
                d="
                    M18.75 2.25H5.25a1.5 1.5 0 0 0-1.5 1.5v16.5a1.5 1.5 0 0 0 1.5 1.5h13.5a1.5 1.5 0 0 0 1.5-1.5V3.75a1.5 1.5 0 0 0-1.5-1.5Z
                    m-10.5 16.5a1.125 1.125 0 1 1 0-2.25 1.125 1.125 0 0 1 0 2.25Z
                    m0-3.75a1.125 1.125 0 1 1 0-2.25 1.125 1.125 0 0 1 0 2.25Z
                    M12 18.75a1.125 1.125 0 1 1 0-2.25 1.125 1.125 0 0 1 0 2.25Z
                    M12 15a1.125 1.125 0 1 1 0-2.25A1.125 1.125 0 0 1 12 15Z
                    m3.75 3.75a1.125 1.125 0 1 1 0-2.25 1.125 1.125 0 0 1 0 2.25Z
                    m0-3.75a1.125 1.125 0 1 1 0-2.25 1.125 1.125 0 0 1 0 2.25Z
                    m1.5-5.25a.75.75 0 0 1-.75.75h-9a.75.75 0 0 1-.75-.75V6a.75.75 0 0 1 .75-.75h9a.75.75 0 0 1 .75.75v3.75Z
                "
            />
        </svg>